<svg xmlns="http://www.w3.org/2000/svg" xmlns:xlink="http://www.w3.org/1999/xlink" viewBox="0 0 213.512 262.902"><defs><style>.a{opacity:0.1;}.b{fill:url(#a);}.c{fill:url(#b);}</style><linearGradient id="a" x1="1.281" y1="-0.152" x2="0.063" y2="0.949" gradientUnits="objectBoundingBox"><stop offset="0" stop-color="#00ffc4" stop-opacity="0"/><stop offset="1" stop-color="#00d0ff"/></linearGradient><linearGradient id="b" x1="0.925" y1="0.047" x2="0.063" y2="0.949" xlink:href="#a"/></defs><g class="a" transform="translate(-48.093)"><g transform="translate(48.093)"><path class="b" d="M237.522,195.337a3.857,3.857,0,0,0-4.066,3.639c-.806,14.532-4.021,29.336-8.821,40.614-4.56,10.715-9.5,15.594-12.164,15.594-.015,0-1.6-.068-3.995-5.995-2.009-4.962-3.868-12.22-5.835-19.9-6.986-27.284-16.554-64.65-47.793-64.65S114.043,202,107.056,229.285c-1.967,7.684-3.826,14.943-5.835,19.9-2.4,5.927-3.979,5.995-3.995,5.995-1.555,0-4.39-1.821-7.68-6.93-6.268-9.733-11.2-26.415-12.866-43.536-1.993-20.443.705-40.049,7.595-55.207,7.755-17.061.666-25.107-7.542-34.422C67.413,104.51,55.811,91.343,55.811,57.365c0-28.768,24.342-49.648,57.879-49.648,13.092,0,26.463,6.27,36.312,16.9l-.574.824c-6.58,9.464-10.927,15.716-27.507,15.716a3.859,3.859,0,0,0,0,7.718c20.613,0,26.744-8.818,33.843-19.028.575-.827,1.167-1.674,1.774-2.531a3.844,3.844,0,0,0,.406-.412c10.14-12.194,24.013-19.188,38.063-19.188,33.538,0,57.879,20.88,57.879,49.648,0,33.978-11.6,47.144-20.923,57.724-8.208,9.315-15.3,17.361-7.542,34.422a95.632,95.632,0,0,1,7.825,31.782,3.858,3.858,0,1,0,7.691-.634,103.309,103.309,0,0,0-8.491-34.343c-5.688-12.514-1.68-17.063,6.307-26.127,9.644-10.944,22.85-25.932,22.85-62.825a54.016,54.016,0,0,0-18.334-40.711C231.262,5.914,214.477,0,196.008,0c-15,0-29.739,6.741-41.036,18.639C143.741,6.9,128.6,0,113.69,0,95.221,0,78.436,5.914,66.427,16.654A54.016,54.016,0,0,0,48.093,57.365c0,36.893,13.207,51.881,22.85,62.826,7.986,9.063,11.995,13.613,6.307,26.127-16.658,36.648-7.139,86.006,5.808,106.114,4.474,6.947,9.241,10.47,14.169,10.47,9.188,0,12.594-13.3,17.306-31.7,3.387-13.229,7.226-28.222,13.629-39.921,6.969-12.735,15.7-18.926,26.688-18.926s19.718,6.191,26.688,18.926c6.4,11.7,10.241,26.692,13.629,39.921,4.712,18.4,8.118,31.7,17.306,31.7,6.855,0,13.7-7.205,19.265-20.289,5.137-12.07,8.572-27.819,9.425-43.209A3.858,3.858,0,0,0,237.522,195.337Z" transform="translate(-48.093 0)"/></g><g transform="translate(159.222 28.811)"><path class="c" d="M334.229,76.689H317.508V59.968a3.859,3.859,0,0,0-3.859-3.859H288.955a3.859,3.859,0,0,0-3.859,3.859V76.689H268.375a3.859,3.859,0,0,0-3.859,3.859v24.7a3.859,3.859,0,0,0,3.859,3.859H285.1v16.721a3.859,3.859,0,0,0,3.859,3.859h24.7a3.859,3.859,0,0,0,3.859-3.859V109.1H334.23a3.859,3.859,0,0,0,3.859-3.859v-24.7A3.86,3.86,0,0,0,334.229,76.689ZM292.813,63.827h16.978V76.689H292.813Zm16.978,58.137H292.813V109.1h16.978Zm20.579-20.579H272.234V84.406H330.37Z" transform="translate(-264.516 -56.109)"/></g></g></svg>