<svg xmlns="http://www.w3.org/2000/svg" xmlns:xlink="http://www.w3.org/1999/xlink" viewBox="0 0 249.991 250.035"><defs><style>.a{opacity:0.1;}.b{fill:url(#a);}</style><linearGradient id="a" x1="0.788" y1="0.068" x2="-0.106" y2="1.037" gradientUnits="objectBoundingBox"><stop offset="0" stop-color="#00ffc4" stop-opacity="0.251"/><stop offset="1" stop-color="#00d0ff"/></linearGradient></defs><g class="a" transform="translate(-0.045)"><path class="b" d="M201.057,315.475a3.67,3.67,0,0,0-7.143,1.692c7.793,32.908-2.053,69.008-11.838,81.381-2.038,2.577-4.111,4.115-5.546,4.115-.015,0-1.517-.065-3.8-5.7-1.91-4.719-3.678-11.622-5.549-18.93-6.645-25.948-15.744-61.486-45.454-61.486s-38.809,35.538-45.454,61.486c-1.871,7.308-3.639,14.211-5.55,18.93-2.282,5.637-3.784,5.7-3.8,5.7-1.067,0-2.487-.837-4-2.358-8.06-8.107-16.306-32.342-16.153-58.866a3.67,3.67,0,0,0-3.649-3.691H43.1a3.67,3.67,0,0,0-3.669,3.649c-.149,25.9,7.713,53.447,18.288,64.083,2.983,3,6.08,4.522,9.2,4.522,8.739,0,11.977-12.647,16.459-30.151,3.222-12.581,6.873-26.841,12.962-37.967,6.628-12.112,14.931-18,25.382-18s18.753,5.888,25.382,18c6.088,11.125,9.74,25.386,12.962,37.967,4.482,17.5,7.72,30.151,16.459,30.151,3.878,0,7.681-2.322,11.3-6.9,6.042-7.64,11.29-21.4,14.039-36.8C204.982,348.878,204.692,330.827,201.057,315.475Z" transform="translate(-20.152 -159.968)"/><path class="b" d="M185.67,15.839C174.248,5.625,158.285,0,140.72,0c-14.268,0-28.283,6.412-39.027,17.727C91.011,6.56,76.611,0,62.431,0,44.866,0,28.9,5.625,17.482,15.839A51.374,51.374,0,0,0,.045,54.557c0,35.087,12.56,49.342,21.732,59.751,7.6,8.619,11.408,12.947,6,24.848a94,94,0,0,0-7.15,24.732A3.67,3.67,0,0,0,23.7,168.07a3.724,3.724,0,0,0,.557.042,3.67,3.67,0,0,0,3.623-3.117,86.664,86.664,0,0,1,6.576-22.8c7.376-16.226.634-23.878-7.173-32.738-8.866-10.061-19.9-22.583-19.9-54.9C7.383,27.2,30.534,7.339,62.43,7.339c12.451,0,25.168,5.963,34.535,16.075l-.546.783c-6.258,9-10.392,14.946-26.16,14.946a3.67,3.67,0,0,0,0,7.34c19.6,0,25.435-8.386,32.187-18.1.547-.787,1.11-1.593,1.687-2.408a3.619,3.619,0,0,0,.386-.392c9.644-11.6,22.838-18.249,36.2-18.249,31.9,0,55.047,19.858,55.047,47.218,0,11.166-1.309,20.637-4,28.956a3.67,3.67,0,0,0,6.983,2.26c2.932-9.06,4.357-19.271,4.357-31.216A51.37,51.37,0,0,0,185.67,15.839Z" transform="translate(0)"/><path class="b" d="M341.038,252.592l-39.145-39.145a11.6,11.6,0,0,0-13.244-2.172L273.34,195.966a50.7,50.7,0,1,0-5.19,5.19l15.309,15.309a11.6,11.6,0,0,0,2.172,13.243l39.145,39.145a11.5,11.5,0,1,0,16.262-16.261ZM235.046,206.165a43.3,43.3,0,1,1,43.3-43.3A43.353,43.353,0,0,1,235.046,206.165Zm100.8,57.5a4.2,4.2,0,0,1-5.882,0l-39.145-39.145a4.159,4.159,0,1,1,5.882-5.882l39.145,39.145A4.2,4.2,0,0,1,335.848,263.664Z" transform="translate(-94.326 -57.416)"/><path class="b" d="M251.452,144.282a34.985,34.985,0,1,0,34.985,34.985A35.025,35.025,0,0,0,251.452,144.282Zm0,62.631A27.646,27.646,0,1,1,279.1,179.267,27.678,27.678,0,0,1,251.452,206.913Z" transform="translate(-110.732 -73.822)"/></g></svg>