<svg xmlns="http://www.w3.org/2000/svg" xmlns:xlink="http://www.w3.org/1999/xlink" viewBox="0 0 203.18 250.181"><defs><style>.a{opacity:0.1;}.b{fill:url(#a);}</style><linearGradient id="a" x1="-1.617" y1="2.775" x2="1.243" y2="0.262" gradientUnits="objectBoundingBox"><stop offset="0" stop-color="#00ffc4"/><stop offset="1" stop-color="#00d0ff" stop-opacity="0.4"/></linearGradient></defs><g class="a" transform="translate(-48.093)"><g transform="translate(173.428 19.583)"><path class="b" d="M363.1,75.329c-13.093,0-23.745-14.166-23.745-31.578a3.672,3.672,0,1,0-7.344,0c0,17.412-10.652,31.578-23.745,31.578a3.672,3.672,0,1,0,0,7.344c13.093,0,23.745,14.166,23.745,31.578a3.672,3.672,0,0,0,7.344,0c0-17.412,10.652-31.578,23.745-31.578a3.672,3.672,0,1,0,0-7.344ZM335.683,95.912A35.679,35.679,0,0,0,321.444,79a35.676,35.676,0,0,0,14.239-16.912A35.679,35.679,0,0,0,349.923,79,35.681,35.681,0,0,0,335.683,95.912Z" transform="translate(-304.594 -40.078)"/></g><g transform="translate(138.177 70.501)"><path class="b" d="M275.292,171.7c-8.625,0-15.912-10.874-15.912-23.745a3.672,3.672,0,0,0-7.344,0c0,12.871-7.287,23.745-15.912,23.745a3.672,3.672,0,0,0,0,7.344c8.625,0,15.912,10.874,15.912,23.745a3.672,3.672,0,0,0,7.344,0c0-12.871,7.286-23.745,15.912-23.745a3.672,3.672,0,1,0,0-7.344Zm-16.836,9.568a31.445,31.445,0,0,0-2.748,4.668,31.443,31.443,0,0,0-2.748-4.668,25.312,25.312,0,0,0-5.78-5.9,25.312,25.312,0,0,0,5.78-5.9,31.443,31.443,0,0,0,2.748-4.668,31.443,31.443,0,0,0,2.748,4.668,25.312,25.312,0,0,0,5.78,5.9A25.311,25.311,0,0,0,258.456,181.267Z" transform="translate(-232.452 -144.281)"/></g><g transform="translate(196.928 97.918)"><path class="b" d="M395.527,227.808c-8.625,0-15.912-10.874-15.912-23.745a3.672,3.672,0,0,0-7.344,0c0,12.871-7.286,23.745-15.912,23.745a3.672,3.672,0,0,0,0,7.344c8.625,0,15.912,10.874,15.912,23.745a3.672,3.672,0,1,0,7.344,0c0-12.871,7.286-23.745,15.912-23.745a3.672,3.672,0,0,0,0-7.344Zm-16.836,9.568a31.438,31.438,0,0,0-2.748,4.668,31.442,31.442,0,0,0-2.748-4.668,25.321,25.321,0,0,0-5.78-5.9,25.312,25.312,0,0,0,5.78-5.9,31.441,31.441,0,0,0,2.748-4.668,31.439,31.439,0,0,0,2.748,4.668,25.321,25.321,0,0,0,5.78,5.9A25.32,25.32,0,0,0,378.691,237.376Z" transform="translate(-352.687 -200.391)"/></g><g transform="translate(67.332 156.669)"><path class="b" d="M251.136,330.206a3.672,3.672,0,1,0-7.28.959c4.18,31.766-5.681,62.468-14.408,72.418-1.79,2.042-3.539,3.213-4.8,3.213-.015,0-1.518-.065-3.8-5.7-1.912-4.722-3.68-11.629-5.553-18.941-6.648-25.964-15.753-61.523-45.48-61.523s-38.832,35.558-45.48,61.522c-1.872,7.312-3.641,14.22-5.552,18.941-2.283,5.64-3.787,5.7-3.8,5.7-1.154,0-2.756-1.01-4.4-2.771-4.426-4.751-8.822-14.4-11.76-25.821a129.762,129.762,0,0,1-3.714-40.416,3.672,3.672,0,1,0-7.326-.518c-2.185,30.868,7.145,60.728,17.426,71.763,3.159,3.39,6.446,5.108,9.77,5.108,8.744,0,11.984-12.654,16.468-30.168,3.223-12.589,6.877-26.857,12.969-37.989,6.632-12.119,14.94-18.011,25.4-18.011s18.764,5.891,25.4,18.011c6.092,11.132,9.745,25.4,12.969,37.989,4.485,17.514,7.725,30.168,16.469,30.168,3.521,0,6.992-1.923,10.317-5.714C246.035,395.807,255.362,362.315,251.136,330.206Z" transform="translate(-87.466 -320.626)"/></g><g transform="translate(48.093)"><path class="b" d="M233.827,15.848C222.4,5.628,206.426,0,188.851,0c-14.275,0-28.3,6.415-39.05,17.737C139.113,6.564,124.7,0,110.516,0,92.941,0,76.968,5.628,65.54,15.848A51.4,51.4,0,0,0,48.093,54.589c0,35.107,12.568,49.371,21.745,59.786,7.6,8.624,11.414,12.954,6,24.862a89.784,89.784,0,0,0-5.661,16.916,3.672,3.672,0,0,0,7.156,1.652,82.358,82.358,0,0,1,5.191-15.529c7.38-16.236.634-23.892-7.177-32.757-8.871-10.067-19.911-22.6-19.911-54.93,0-27.376,23.164-47.246,55.079-47.246,12.458,0,25.182,5.966,34.555,16.084l-.546.784c-6.261,9.006-10.4,14.955-26.176,14.955a3.672,3.672,0,0,0,0,7.344c19.616,0,25.45-8.391,32.2-18.107.548-.787,1.111-1.593,1.689-2.409a3.609,3.609,0,0,0,.386-.392c9.65-11.6,22.851-18.26,36.221-18.26,31.915,0,55.079,19.869,55.079,47.246,0,26.11-7.352,39.137-13.757,47.57a3.672,3.672,0,0,0,5.849,4.442c7.1-9.349,15.252-23.71,15.252-52.012A51.4,51.4,0,0,0,233.827,15.848Z" transform="translate(-48.093)"/></g></g></svg>