<svg xmlns="http://www.w3.org/2000/svg" xmlns:xlink="http://www.w3.org/1999/xlink" viewBox="0 0 134.567 134.567"><defs><style>.a{opacity:0.1;}.b{fill:url(#a);}</style><linearGradient id="a" x1="0.5" x2="0.5" y2="1" gradientUnits="objectBoundingBox"><stop offset="0" stop-color="#00ffc4" stop-opacity="0.6"/><stop offset="1" stop-color="#00d0ff"/></linearGradient></defs><g class="a" transform="translate(0)"><g transform="translate(21.56)"><path class="b" d="M133.557,33.02c2.474-2.808,6.214-7.052,6.214-17.06A15.074,15.074,0,0,0,134.656,4.6a19.362,19.362,0,0,0-13-4.6,15.7,15.7,0,0,0-10.725,4.473A15.8,15.8,0,0,0,100.143,0a19.362,19.362,0,0,0-13,4.6A15.074,15.074,0,0,0,82.031,15.96c0,10.008,3.739,14.252,6.214,17.06,2.036,2.311,2.722,3.089,1.494,5.79a26.873,26.873,0,0,0-2.063,7.2,1.975,1.975,0,0,0,3.908.576,22.925,22.925,0,0,1,1.751-6.143c2.286-5.029.043-7.574-2.126-10.036-2.329-2.643-5.228-5.933-5.228-14.449,0-6.959,5.956-12.01,14.161-12.01a12.1,12.1,0,0,1,8.239,3.556c-1.519,2.165-2.5,3.251-6.088,3.251a1.975,1.975,0,0,0,0,3.95c5.893,0,7.8-2.739,9.639-5.388.134-.192.274-.392.414-.59.036-.037.072-.073.1-.113a12.162,12.162,0,0,1,9.206-4.667c8.206,0,14.162,5.051,14.162,12.01,0,8.516-2.9,11.806-5.228,14.449-2.169,2.462-4.412,5.007-2.126,10.036,3.289,7.236,2.253,17.338-.392,23.17a8.368,8.368,0,0,1-1.9,2.912,32.418,32.418,0,0,1-1.844-5.87c-.929-3.628-1.982-7.74-3.835-11.126-2.36-4.312-5.587-6.5-9.593-6.5s-7.233,2.186-9.593,6.5c-1.853,3.387-2.906,7.5-3.835,11.126a32.08,32.08,0,0,1-1.851,5.883c-1.155-.922-3.489-5.265-4.175-12.007a1.975,1.975,0,0,0-3.93.4c.775,7.62,3.956,15.718,8.323,15.718,2.421,0,3.466-2.582,3.81-3.431a47.053,47.053,0,0,0,1.65-5.582c2.053-8.018,4.192-14.654,9.6-14.654s7.548,6.637,9.6,14.654a46.963,46.963,0,0,0,1.65,5.582c.344.848,1.389,3.431,3.81,3.431,1.638,0,3.157-1.07,4.516-3.18,1.908-2.963,3.337-7.712,3.824-12.705.4-4.143.343-10.274-2.239-15.954C130.835,36.109,131.521,35.331,133.557,33.02Z" transform="translate(-82.031 0)"/></g><g transform="translate(0 9.122)"><path class="b" d="M134.567,49.322A14.616,14.616,0,1,0,118,63.8a1.971,1.971,0,0,0-.02.266v59.346a32.786,32.786,0,0,1-65.572,0V114.5h4.345a44.159,44.159,0,0,0,44.11-44.11V45.109a1.975,1.975,0,0,0-1.975-1.975H94.539V40.9a1.975,1.975,0,0,0-1.975-1.975H90.457a6.188,6.188,0,0,0,0,12.377h2.107a1.975,1.975,0,0,0,1.975-1.975V47.084h2.37V70.39A40.2,40.2,0,0,1,56.75,110.549H44.109A40.2,40.2,0,0,1,3.95,70.39V47.084H6.32v2.238A1.975,1.975,0,0,0,8.3,51.3H10.4a6.189,6.189,0,0,0,0-12.377H8.3A1.975,1.975,0,0,0,6.32,40.9v2.238H1.975A1.975,1.975,0,0,0,0,45.109V70.39A44.159,44.159,0,0,0,44.11,114.5h4.345v8.917a36.736,36.736,0,0,0,73.472,0V64.07a1.974,1.974,0,0,0-.02-.266A14.635,14.635,0,0,0,134.567,49.322ZM90.589,47.348h-.132a2.238,2.238,0,0,1,0-4.477h.132ZM10.27,42.871H10.4a2.238,2.238,0,1,1,0,4.477H10.27V42.871ZM119.951,59.988a10.665,10.665,0,1,1,10.665-10.665A10.677,10.677,0,0,1,119.951,59.988Z" transform="translate(0 -34.707)"/></g><g transform="translate(112.446 16.232)"><path class="b" d="M435.34,61.761a7.505,7.505,0,1,0,7.505,7.505A7.514,7.514,0,0,0,435.34,61.761Zm0,11.06a3.555,3.555,0,1,1,3.555-3.555A3.559,3.559,0,0,1,435.34,72.821Z" transform="translate(-427.835 -61.761)"/></g></g></svg>