<svg xmlns="http://www.w3.org/2000/svg" xmlns:xlink="http://www.w3.org/1999/xlink" viewBox="0 0 184.472 181.036"><defs><style>.a{opacity:0.1;}.b{fill:url(#a);}</style><linearGradient id="a" x1="0.5" x2="0.5" y2="1" gradientUnits="objectBoundingBox"><stop offset="0" stop-color="#00ffc4" stop-opacity="0.6"/><stop offset="1" stop-color="#00d0ff"/></linearGradient></defs><g class="a" transform="translate(-4.693 61.11) rotate(-30)"><g transform="translate(22.187 0)"><g transform="translate(0)"><path class="b" d="M53.024,33.98c2.546-2.89,6.394-7.257,6.394-17.556A15.512,15.512,0,0,0,54.155,4.733,19.924,19.924,0,0,0,40.78,0,16.158,16.158,0,0,0,29.743,4.6,16.259,16.259,0,0,0,18.638,0,19.925,19.925,0,0,0,5.263,4.733,15.512,15.512,0,0,0,0,16.424C0,26.723,3.848,31.09,6.394,33.98c2.1,2.378,2.8,3.179,1.537,5.958A27.654,27.654,0,0,0,5.809,47.35a2.033,2.033,0,1,0,4.022.593,23.592,23.592,0,0,1,1.8-6.322c2.352-5.175.044-7.795-2.188-10.328-2.4-2.72-5.38-6.105-5.38-14.869,0-7.161,6.129-12.359,14.573-12.359a12.449,12.449,0,0,1,8.479,3.66c-1.563,2.228-2.569,3.346-6.265,3.346a2.033,2.033,0,0,0,0,4.065c6.064,0,8.024-2.819,9.92-5.545.138-.2.282-.4.426-.607.037-.038.074-.075.108-.116a12.516,12.516,0,0,1,9.474-4.8c8.445,0,14.573,5.2,14.573,12.359,0,8.763-2.983,12.149-5.38,14.869-2.232,2.533-4.54,5.153-2.188,10.328,3.385,7.446,2.318,17.842-.4,23.843a8.611,8.611,0,0,1-1.957,3,33.36,33.36,0,0,1-1.9-6.041c-.956-3.734-2.04-7.965-3.946-11.45-2.429-4.437-5.75-6.687-9.872-6.687s-7.444,2.25-9.872,6.687c-1.907,3.485-2.991,7.717-3.946,11.45a33.012,33.012,0,0,1-1.905,6.054c-1.189-.949-3.59-5.418-4.3-12.357a2.032,2.032,0,1,0-4.044.412C6.443,64.37,9.716,72.7,14.21,72.7c2.491,0,3.567-2.657,3.92-3.53a48.423,48.423,0,0,0,1.7-5.744c2.113-8.251,4.314-15.08,9.88-15.08s7.768,6.83,9.88,15.08a48.326,48.326,0,0,0,1.7,5.744c.354.873,1.429,3.53,3.92,3.53,1.686,0,3.249-1.1,4.647-3.272,1.963-3.049,3.434-7.937,3.935-13.074.415-4.264.353-10.573-2.3-16.418C50.223,37.159,50.929,36.358,53.024,33.98Z" transform="translate(0 0)"/></g></g><g transform="translate(0 9.387)"><g transform="translate(0 0)"><path class="b" d="M138.479,15.04a15.04,15.04,0,1,0-17.052,14.9,2.029,2.029,0,0,0-.021.274V91.288a33.739,33.739,0,0,1-67.478,0V82.112H58.4A45.443,45.443,0,0,0,103.791,36.72V10.7a2.033,2.033,0,0,0-2.033-2.033H97.287v-2.3a2.033,2.033,0,0,0-2.033-2.033H93.086a6.368,6.368,0,0,0,0,12.737h2.168a2.033,2.033,0,0,0,2.033-2.033v-2.3h2.439V36.72A41.373,41.373,0,0,1,58.4,78.047H45.392A41.373,41.373,0,0,1,4.065,36.72V12.737H6.5v2.3a2.033,2.033,0,0,0,2.033,2.033H10.7a6.369,6.369,0,0,0,0-12.737H8.536A2.033,2.033,0,0,0,6.5,6.369v2.3H2.033A2.032,2.032,0,0,0,0,10.7V36.72A45.443,45.443,0,0,0,45.392,82.112h4.471v9.176a37.8,37.8,0,0,0,75.608,0V30.216a2.031,2.031,0,0,0-.021-.274A15.06,15.06,0,0,0,138.479,15.04ZM93.223,13.008h-.135a2.3,2.3,0,1,1,0-4.607h.135ZM10.569,8.4H10.7a2.3,2.3,0,1,1,0,4.607h-.136V8.4Zm112.87,17.615a10.975,10.975,0,1,1,10.975-10.975A10.988,10.988,0,0,1,123.439,26.016Z" transform="translate(0 0)"/></g></g><g transform="translate(115.715 16.704)"><g transform="translate(0 0)"><path class="b" d="M7.723,0a7.723,7.723,0,1,0,7.723,7.723A7.732,7.732,0,0,0,7.723,0Zm0,11.382a3.658,3.658,0,1,1,3.658-3.658A3.662,3.662,0,0,1,7.723,11.382Z" transform="translate(0 0)"/></g></g></g></svg>