<svg xmlns="http://www.w3.org/2000/svg" xmlns:xlink="http://www.w3.org/1999/xlink" viewBox="0 0 158.31 140.639"><defs><style>.a{opacity:0.1;}.b{fill:url(#a);}</style><linearGradient id="a" x1="0.5" x2="0.5" y2="1" gradientUnits="objectBoundingBox"><stop offset="0" stop-color="#00ffc4"/><stop offset="1" stop-color="#00d0ff"/></linearGradient></defs><g transform="translate(-140.546 -2733.363)"><g class="a" transform="matrix(0.966, -0.259, 0.259, 0.966, 140.546, 2762.795)"><g transform="translate(0 0)"><path class="b" d="M108.48,5.252A17.879,17.879,0,0,0,82.058,29.288L65.344,46,63.993,44.65a1.687,1.687,0,0,0-2.386,0L42.9,63.359,32.036,64.566a1.708,1.708,0,0,0-1.007.484L.495,95.585a1.687,1.687,0,0,0,0,2.385l15.267,15.267a1.7,1.7,0,0,0,2.385,0L36.14,95.245a1.687,1.687,0,0,0-2.385-2.385l-16.8,16.8L4.073,96.777,32.222,68.628,45.1,81.51l-5.025,5.025a1.687,1.687,0,0,0,2.385,2.385L48.682,82.7a1.708,1.708,0,0,0,.484-1.007l1.207-10.863L69.082,52.125a1.7,1.7,0,0,0,0-2.385L67.73,48.387,84.442,31.675A17.88,17.88,0,0,0,113.717,17.9,17.763,17.763,0,0,0,108.48,5.252ZM46.2,77.835l-10.3-10.3,7.157-.8L47,70.679Zm2.561-10.161-2.7-2.7L62.8,48.228l2.7,2.7Zm57.332-39.52A14.507,14.507,0,1,1,85.579,7.638a14.507,14.507,0,1,1,20.515,20.516Z" transform="translate(0 -0.015)"/></g><g transform="translate(85.158 7.202)"><path class="b" d="M401.648,35.567a10.678,10.678,0,1,0,0,15.108A10.7,10.7,0,0,0,401.648,35.567ZM399.263,48.29a7.306,7.306,0,1,1,0-10.337A7.318,7.318,0,0,1,399.263,48.29Z" transform="translate(-383.415 -32.443)"/></g></g><g class="a" transform="translate(193.892 2760)"><g transform="translate(0 0)"><path class="b" d="M121.082,17.035,110.9,6.856a1.737,1.737,0,0,0-.56-.371l-8.875-3.8a1.687,1.687,0,0,0-1.857.358L98.255,4.394c-.024-.028-.049-.057-.075-.083L94.363.494a1.689,1.689,0,0,0-2.622.293,1.717,1.717,0,0,0,.271,2.128L95.794,6.7c.027.027.055.051.084.075L94.522,8.128a1.687,1.687,0,0,0-.358,1.857l3.8,8.875a1.7,1.7,0,0,0,.371.56l7.714,7.714-16.7,16.7a7.088,7.088,0,0,0-8.029-1.52,7.112,7.112,0,0,0-2.071,1.441L48.717,74.291a7.093,7.093,0,0,0,0,10.02l5.169,5.169-.623.623a8.138,8.138,0,0,0-2.392,4.929,7.953,7.953,0,0,0,2.3,6.456l1.2,1.2a4.681,4.681,0,0,1,.366,6.278,4.616,4.616,0,0,1-6.811.318L36.563,97.923a8.137,8.137,0,0,0-4.928-2.392,7.953,7.953,0,0,0-6.458,2.3l-2.446,2.446a8.147,8.147,0,0,0-2.389,4.857,7.956,7.956,0,0,0,2.257,6.5,1.714,1.714,0,0,0,2.158.249,1.689,1.689,0,0,0,.262-2.6,4.616,4.616,0,0,1,0-6.521l2.478-2.478A4.724,4.724,0,0,1,30.279,98.9a4.6,4.6,0,0,1,3.805,1.319l11.451,11.451a7.994,7.994,0,0,0,11.672-.407,8.087,8.087,0,0,0-.49-11l-1.1-1.1a4.725,4.725,0,0,1-1.386-2.781,4.594,4.594,0,0,1,1.319-3.806l.715-.715,5.169,5.169a7.137,7.137,0,0,0,8.789.975c.443-.279,22.824-22.569,22.824-22.569a1.687,1.687,0,0,0-2.386-2.386L69.075,94.649a3.753,3.753,0,0,1-5.248,0l-6.36-6.36,0,0,0,0-6.36-6.36a3.715,3.715,0,0,1,0-5.248l.079-.079,6.441,6.441A5.286,5.286,0,0,0,65.1,75.564l-6.441-6.441,3.976-3.976,6.441,6.441a5.286,5.286,0,0,0,7.475-7.475l-6.441-6.441,3.976-3.976,6.441,6.441A5.286,5.286,0,0,0,88,52.661L81.559,46.22a3.755,3.755,0,0,1,3.215-1.132A3.812,3.812,0,0,1,86.943,46.2L99.611,58.864a3.746,3.746,0,0,1,0,5.248l-3.1,3.1a1.73,1.73,0,0,0-.185,2.273,1.687,1.687,0,0,0,2.526.158L102,66.5a7.15,7.15,0,0,0,1.318-8.2,7.437,7.437,0,0,0-1.4-1.9l19.165-19.165A14.3,14.3,0,0,0,121.082,17.035Zm-58.4,60.883a1.949,1.949,0,0,1,.54.934,1.917,1.917,0,0,1-.748,2.005,1.951,1.951,0,0,1-2.508-.248l-6.4-6.4,2.7-2.7ZM74.164,66.5a1.914,1.914,0,0,1-.219,2.893,1.953,1.953,0,0,1-2.529-.233l-6.4-6.4,2.7-2.7ZM85.583,55.015a1.949,1.949,0,0,1,.542.94,1.914,1.914,0,0,1-3.214,1.8L76.47,51.309l2.7-2.7ZM97.715,9.706l3.474-3.474,5.567,2.386L100.1,15.273Zm8.178,12.5-3.976-3.976,7.793-7.793,3.976,3.976ZM99.532,54.013,91.739,46.22l17.893-17.892a1.687,1.687,0,0,0,0-2.386L108.28,24.59l7.793-7.793,2.624,2.624a10.921,10.921,0,0,1,0,15.427Z" transform="translate(-20.295 0)"/></g></g></g></svg>