<svg xmlns="http://www.w3.org/2000/svg" xmlns:xlink="http://www.w3.org/1999/xlink" viewBox="0 0 51.475 76.306"><defs><style>.a{fill:url(#a);}.b{filter:url(#b);}</style><linearGradient id="a" x1="-0.192" x2="1" y2="1.369" gradientUnits="objectBoundingBox"><stop offset="0" stop-color="#00ffc4"/><stop offset="1" stop-color="#00d0ff"/></linearGradient><filter id="b" x="0" y="0" width="51.475" height="76.306" filterUnits="userSpaceOnUse"><feOffset dy="5" input="SourceAlpha"/><feGaussianBlur stdDeviation="2.5" result="c"/><feFlood flood-color="#00d0ff" flood-opacity="0.2"/><feComposite operator="in" in2="c"/><feComposite in="SourceGraphic"/></filter></defs><g transform="translate(-1312.332 -825.19)"><g transform="translate(1319.832 827.69)"><g transform="translate(0 0)"><g class="b" transform="matrix(1, 0, 0, 1, -7.5, -2.5)"><path class="a" d="M18.224,61.306h0C18.077,61,3.512,30.2,1.672,25.842A17.4,17.4,0,0,1,.453,22.26a5.844,5.844,0,0,1-.129-.609A18.221,18.221,0,0,1,17.578.009C17.79,0,18.011,0,18.224,0A18.224,18.224,0,0,1,36.143,21.687c-.03.187-.068.372-.12.582a17.864,17.864,0,0,1-1.228,3.61c-1.805,4.264-15.961,34.141-16.563,35.41l-.007.016Zm0-52.313a9.44,9.44,0,1,0,9.434,9.445A9.446,9.446,0,0,0,18.224,8.993Z" transform="translate(7.5 2.5)"/></g></g></g></g></svg>