<svg xmlns="http://www.w3.org/2000/svg" xmlns:xlink="http://www.w3.org/1999/xlink" viewBox="0 0 136.562 136.673"><defs><style>.a{opacity:0.1;}.b{stroke:#fff;fill:url(#a);}</style><linearGradient id="a" x1="0.874" y1="0.194" x2="0.106" y2="0.869" gradientUnits="objectBoundingBox"><stop offset="0" stop-color="#00ffc4" stop-opacity="0.702"/><stop offset="1" stop-color="#00d0ff"/></linearGradient></defs><g class="a" transform="translate(0.5 0.5)"><g transform="translate(0)"><path class="b" d="M47.017,18.209a27.657,27.657,0,0,0-18.008,6.739A28.065,28.065,0,0,0,19.791,41.39a26.687,26.687,0,0,0-.352,4.316V62A27.567,27.567,0,0,0,73,71.2a24.6,24.6,0,0,0,.89-3.078A27.326,27.326,0,0,0,74.58,62v-16.3A27.587,27.587,0,0,0,59.457,21.123a27.078,27.078,0,0,0-12.44-2.913ZM69.2,62a21.5,21.5,0,0,1-.829,5.964,20.591,20.591,0,0,1-.895,2.6A22.2,22.2,0,0,1,24.823,62v-16.3a22.187,22.187,0,1,1,44.374,0Z" transform="translate(6.723 6.297)"/><path class="b" d="M68.075,0c-.263,0-.509,0-.59.014A27.749,27.749,0,0,0,43.094,15.95a2.69,2.69,0,1,0,4.871,2.285A22.379,22.379,0,0,1,67.618,5.383H68A22.21,22.21,0,0,1,90.255,27.55v16.3A22.377,22.377,0,0,1,73.686,65.332a2.681,2.681,0,0,0,1.366,5.186,27.564,27.564,0,0,0,20.587-26.67V27.55A27.588,27.588,0,0,0,68.075,0Z" transform="translate(14.816)"/><path class="b" d="M107.032,95.808C101.949,76.408,83,71.1,75.073,69.719a2.733,2.733,0,0,0-3.108,2.259,2.688,2.688,0,0,0,2.188,3.048C82.716,76.524,97.7,81.4,101.833,97.2a33.3,33.3,0,0,1,1.071,7.645v1.346H5.4v-1.3C5.681,96.079,8.811,88.967,14.7,83.75a37.038,37.038,0,0,1,14.493-7.58c1.621-.462,3.267-.835,4.924-1.142a2.664,2.664,0,0,0,2.246-2.635,2.913,2.913,0,0,0-.029-.423,2.657,2.657,0,0,0-1.059-1.756,3.058,3.058,0,0,0-2.539-.406A57.156,57.156,0,0,0,22.3,72.858,41.233,41.233,0,0,0,13.27,77.9a32.573,32.573,0,0,0-7.811,8.237A33.263,33.263,0,0,0,.682,98.349,43.438,43.438,0,0,0,0,106.188v5.383H108.313v-5.383a40.284,40.284,0,0,0-1.282-10.38Z" transform="translate(0 24.101)"/><path class="b" d="M110.015,87.642a38.779,38.779,0,0,0-1.221-8.3c-5.082-19.4-24.032-24.7-31.965-26.089a2.693,2.693,0,1,0-.913,5.307c8.563,1.5,23.546,6.369,27.679,22.172a33.128,33.128,0,0,1,1.071,7.644v1.737h-14.3a2.692,2.692,0,0,0,0,5.383h19.707Z" transform="translate(25.482 18.405)"/></g></g></svg>