<svg xmlns="http://www.w3.org/2000/svg" xmlns:xlink="http://www.w3.org/1999/xlink" viewBox="0 0 47.992 48.8"><defs><style>.a{fill:url(#a);}</style><linearGradient id="a" x1="0.951" y1="-0.05" x2="-0.069" y2="1.102" gradientUnits="objectBoundingBox"><stop offset="0" stop-color="#00ffc4"/><stop offset="1" stop-color="#00d0ff"/></linearGradient></defs><path class="a" d="M44.154,6.068C40.3,1.977,33.721,0,24.011,0S7.706,1.977,3.849,6.068C1.031,9.063-.261,13.193.032,18.342A54.232,54.232,0,0,0,3.047,33.493a43.366,43.366,0,0,0,5.187,10.14h0v.02C10.642,47.078,12.952,48.8,15.1,48.8c1.253,0,3.015-.607,4.365-3.484,1.507-3.23,3.152-5.089,4.5-5.089s2.995,1.86,4.5,5.089c1.351,2.878,3.112,3.484,4.365,3.484h0c2.153,0,4.463-1.742,6.871-5.148a43.03,43.03,0,0,0,5.207-10.14,52.87,52.87,0,0,0,3.015-15.151C48.265,13.193,46.973,9.063,44.154,6.068ZM24.011,2.153a51.442,51.442,0,0,1,8.006.568h0c4.052,1.214,6.812,3.249,7.223,5.3a3.15,3.15,0,0,1-1.429,3.054,5.711,5.711,0,0,1-3.8,1.272c-2.858,0-6.186-1.429-9.709-2.936a44.488,44.488,0,0,0-8.124-2.9,21.026,21.026,0,0,0-4.169-.45A13,13,0,0,0,5.259,7.752a1.846,1.846,0,0,1,.2-.2C8.841,3.915,14.909,2.153,24.011,2.153ZM17.552,44.4c-.7,1.488-1.507,2.251-2.408,2.251-1.351,0-3.21-1.546-5.109-4.228C4.769,34.726,2.871,24.449,5.67,18.988a4.561,4.561,0,0,1,4.052-2.6c2,0,5.266,1.253,9.533,7.184,3.112,4.326,4.678,9.063,6.186,13.644.157.45.294.9.45,1.351h0a4.136,4.136,0,0,0-1.879-.489C21.682,38.073,19.509,40.207,17.552,44.4ZM45.818,18.224c-.7,12.352-5.207,20.456-7.83,24.175-1.9,2.7-3.758,4.248-5.109,4.248h0c-.9,0-1.723-.763-2.408-2.251-.059-.117-.1-.215-.157-.333h0A65.027,65.027,0,0,1,27.5,36.527C25.93,31.79,24.325,26.9,21.017,22.3,16.2,15.64,12.227,14.251,9.722,14.251a6.671,6.671,0,0,0-5.951,3.758,13.452,13.452,0,0,0-1.253,3.876c-.137-1.174-.254-2.369-.333-3.621-.039-3.191.822-5.677,2.545-7.419a9.91,9.91,0,0,1,7.262-2.623,18.2,18.2,0,0,1,3.739.411,42.778,42.778,0,0,1,7.712,2.78c3.563,1.527,7.262,3.112,10.551,3.112a7.824,7.824,0,0,0,5.148-1.762,5.212,5.212,0,0,0,2.173-5.129,5.664,5.664,0,0,0-.685-1.742,12.367,12.367,0,0,1,1.938,1.664C45.035,10.12,46.092,13.624,45.818,18.224Z" transform="translate(0.009 0)"/></svg>